<svg display="none" xmlns="http://www.w3.org/2000/svg">
  <symbol id="slim" viewBox="0 0 70 97">
    <path d="m54.8 0h-0.4c-0.7 0.4-1.1 0.9-1.4 1.6-0.6 1.1-1 2.3-1.3 3.4-0.2 0.8-0.7 1.2-1.5 1.3-2.3 0.4-4 1.7-5.2 3.7-0.7 1.3-1.3 2.6-1.8 3.9-1.4 3.7-2.5 7.5-3.8 11.2-0.7 1.9-0.8 1.9-2.7 1.9-2.3 0-2.1-0.4-2.1 2.1 0 0.8 0.2 1.2 1.1 1.2 0.3 0 0.7-0.1 0.8 0.2s-0.2 0.5-0.4 0.7c-1.2 1.3-2.7 2-4.3 2.4-1.9 0.5-3.8 0.9-5.7 1.5-4.7 1.6-9.1 3.8-12.6 7.6-2.1 2.3-3.5 5-4.7 7.8-3.8 8.7-5.6 17.8-7 27-0.6 4.3-1.1 8.6-1.5 13-0.1 2.2-0.3 4.3-0.3 6.5h33.3c0.1-0.5-0.1-0.9-0.2-1.3-0.7-1.8-2.1-2.7-3.8-3.1-0.7-0.2-0.8-0.4-0.4-0.9 0.7-0.9 1.2-2 1.6-3.1 1.6-4.8 2.3-9.8 3.1-14.8 0.6-3.8 1.5-7.4 3.4-10.8 1.5-2.5 3.3-4.6 5.6-6.4 0.8-0.6 0.9-0.6 1 0.4 0.1 0.7 0.1 1.4 0.2 2.2 0.3 4.7 0.3 9.5-0.2 14.2-0.3 3.7-0.5 7.4-0.2 11 0.4 4.3 1.2 8.4 2.2 12.6h13.3c-0.3-2.2-2.1-4-4.2-4.4-1.3-0.2-2.5-0.1-3.8 0.2-0.6 0.1-0.8 0-0.9-0.6-0.4-5.3-0.1-10.6 1-15.8 1.3-6 2.4-12.1 3.1-18.2 0.3-2.5 1-4.8 2.3-7 1.2-2.1 2.2-4.3 3.4-6.5 0.9-1.7 1.1-3.4 0.4-5.2-0.3-0.7-0.5-1.4-0.9-2.1-1-2-2-3.9-2.9-5.9-0.5-1-0.4-1.1 0.7-1.1 1.6 0 1.6 0 1.7-1.6v-0.7c0-0.7-0.3-1.1-1-1h-1.5c-0.7 0-0.9-0.3-0.7-1 0.6-2.3 2.8-4.1 5.1-4.4 2.2-0.3 4.4 0 6.6 0.4 0.6 0.1 1 0 1.3-0.6 0.4-1 0.8-2 1.3-3 0.2-0.4 0.2-0.8-0.1-1.1-3.2-4.2-6.7-8-11.4-10.4-0.5-0.3-0.8-0.6-0.9-1.1-0.3-1.4-0.7-2.8-1.3-4.2-0.3-0.7-0.6-1.3-1.4-1.7z" />
  </symbol>
  <symbol id="mass-gain" viewBox="0 0 134 56">
    <path d="m123.1 5.8c1.2-1.9 2.7-3.4 4.5-4.6 1-0.7 1.6-0.7 2.2 0.6 0.8 1.9 1.5 3.9 0.9 6-0.2 0.8-0.1 1.4 0.4 2.1 0.6 0.8 1.1 1.6 1.6 2.3 1.3 1.9 1.8 3.9 0.9 6.2-0.4 1-0.4 2-0.2 3.1 0.2 1 0.2 2 0 3-0.3 1.6-1.1 2.7-2.7 3.2-1.3 0.3-2.4 0.9-3.2 2-0.2 0.3-0.5 0.5-0.9 0.5-1.2 0.2-4.2-2.5-4.2-3.7v-0.6c0.1-3.6-0.1-3.9-3.4-5.4-0.7-0.3-1.3-0.6-1.8-1.2-0.6-0.8-1.4-0.7-2.3-0.4-0.8 0.4-1.4 0.9-1.3 1.9 0.3 2.4 0.4 4.8 0.3 7.3 0 0.3 0.1 0.6 0.2 0.8 3.1 4.5 4.3 9.8 5.8 14.9 1.2 3.9 3.4 6 7.4 6.3 0.6 0 1.3 0.2 1.9 0.3 1.8 0.3 2.9 1.5 3.4 3.2 0.7 2.1 0.3 2.6-1.8 2.6h-6.5c-0.9 0-1.6-0.2-2.3-0.8-1-1-2.2-1.4-3.4-2-1.3-0.6-2.6-1.3-3.4-2.6-1.1-1.7-2.6-3.1-4-4.5-2.8-2.9-5.8-5.7-8.4-8.7-1.9-2.2-3.2-4.6-3.2-7.6 0-0.9-0.2-1.3-1.2-0.9-0.3 0.2-0.7 0.3-1 0.3-2.8 0-4.2 1.7-5.2 4.2-0.9 2.1-2.1 4.1-3.2 6.2-0.5 1.1-1 2.6-1 4.2 0 2.4 0.6 3.2 2.8 4 1.4 0.5 2.7 1 3.4 2.4 0.8 1.6 0.6 2-1.1 2.1h-6.8c-0.9 0-1.5-0.3-1.9-1.1l-1.8-3c-1-1.7-1.4-3.4-0.7-5.4 0.6-1.7 0.3-3.6 0.1-5.3-0.4-2.6 0-4.9 1.7-7 0.6-0.7 0.6-1-0.4-1.2-4.1-0.8-8-2.3-11.8-4.1 0 0-0.1 0-0.1-0.1-3.2-1.2-3.8-1-4.7 2.3-0.8 2.8-1.6 5.6-2.2 8.5-0.7 3.2 0.1 6.2 1.1 9.2 0.4 1.2 1.6 1.1 2.5 1.4 2 0.6 3.7 1.4 4.5 3.5 0.7 1.6 0.6 1.8-1.1 1.8s-3.4-0.1-5.2 0c-1.6 0.1-2.8-0.5-4.2-1.4-4.8-3.2-6.2-8.1-6.6-13.4-0.2-3.3-2-5.9-4.1-8.4-0.4-0.5-0.8-0.7-1.4-0.3-2.1 1.3-4.5 2.1-6.7 3-4.8 1.8-9 4.6-12.2 8.8-1.2 1.5-1.9 3.2-2.2 5.1-0.3 1.8 0.2 2.6 2 3.1 1.9 0.6 2.7 1.5 2.9 3.4 0.1 0.8-0.2 1.2-1 1.2h-8.1c-0.6 0-1-0.4-1.3-0.8-1.3-1.6-1.9-3.5-1.9-5.5-0.1-3.5 0.3-6.9 0.9-10.3 0.4-2.1 1.4-3.8 3.4-4.8 5.9-2.8 9-8.1 11.8-13.6 0.6-1.1 0.1-1.3-0.9-1.2-2.9 0.3-5.4 1.6-7.7 3.2-3 2.1-5.7 4.6-8.3 7.1-2.9 2.7-6.2 4.6-10.3 4.9-7.3 0.4-10.7-3.7-10.4-10.3 0.1-2.3 0.9-4.4 2.4-6.1 1.2-1.3 2.6-2 4.5-1.5 1.5 0.4 1.9 1.2 1.3 2.7-0.3 0.6-0.7 1.1-1 1.7-0.4 0.6-0.8 1.3-1 2-1.1 3 0.4 5.1 3.5 5.4 3.3 0.3 6-1.1 8.5-3.1 3-2.4 5.7-5.2 8-8.3 3.7-4.8 8.5-7.3 14.4-8.1 2.3-0.3 4.3-1.3 6.5-1.9 4.1-1.2 8.3-1.9 12.7-1.8 2 0.1 3.9-0.3 5.8-1.1 4.9-2 10-2 15.1-1 4 0.8 8 1.8 11.9 2.8 2.2 0.5 4.7 0.3 7-0.2 4.4-1 8.9-1.9 13.4-2 3-0.1 5.9 0.4 8.6 1.7 2 0.9 2 0.9 1.5 2.8z" />
  </symbol>
  <symbol id="plus" viewBox="0 0 30 30">
    <path class="st0" d="M30 14H16V0h-2v14H0v2h14v14h2V16h14z"/>
  </symbol>
  <symbol id="gift" enable-background="new 0 0 55.5 60" viewBox="0 0 55.5 60">
    <path d="m52.3 12.2h-7c0.5-0.7 0.8-1.4 1.1-2.2 0.6-2 0.4-4.1-0.6-5.9s-2.6-3.1-4.6-3.7-4.1-0.4-5.9 0.6c-3.6 2-6.2 6.1-7.6 9-1.4-2.9-4-7.1-7.6-9-3.8-2-8.5-0.6-10.5 3.1-1.4 2.7-1.2 5.8 0.5 8.1h-7c-1.7 0-3.1 1.4-3.1 3.1v9.4c0 1.7 1.4 3.1 3.1 3.1h0.9v26.1c0 3.3 2.7 6 6 6h35.5c3.3 0 6-2.7 6-6v-26.1h0.8c1.7 0 3.1-1.4 3.1-3.1v-9.4c0.1-1.7-1.3-3.1-3.1-3.1zm-15.8-9.2c1.3-0.7 2.7-0.8 4.1-0.4 1.3 0.4 2.4 1.3 3.1 2.6s0.8 2.7 0.4 4.1c-0.4 1.2-1.1 2.2-2.2 2.9h-12.5c1.1-2.6 3.6-7.2 7.1-9.2zm-24.8 2.2c1.5-2.6 4.7-3.6 7.3-2.2 3.5 1.9 6 6.6 7.1 9.1h-12.6c-2.3-1.4-3.1-4.5-1.8-6.9zm14.8 22.6v13.7h-20.1v-13.7h20.1zm-20.1 26.1v-10h20.2v13.7h-16.6c-2 0-3.6-1.7-3.6-3.7zm39.1 3.7h-16.6v-13.7h20.2v10c0 2-1.6 3.7-3.6 3.7zm3.6-16.1h-20.2v-13.7h20.2v13.7zm4-16.8c0 0.4-0.3 0.7-0.7 0.7h-2s0 0 0 0h-22.7s0 0 0 0h-22.5s0 0 0 0h-2c-0.4 0-0.7-0.3-0.7-0.7v-9.4c0-0.4 0.3-0.7 0.7-0.7h49.2c0.4 0 0.7 0.3 0.7 0.7v9.4z" />
  </symbol>
  <symbol id="email-icon" viewBox="0 0 17 13">
    <path d="M15.6 11.6H1.4V5.8H0V13h17V5.8h-1.4v5.8zM0 0v2.3l8.5 7.1L17 2.3V0H0zm15.6 1.6L8.5 7.5 1.4 1.6v-.2h14.2v.2z" />
  </symbol>
  <symbol id="phone-icon"  viewBox="0 0 20 20">
    <path d="M17.9 9.4H9.4v1.2h8.5l-2.1 2.1.9.9 3.1-3.1c.2-.2.2-.6 0-.9l-3.1-3.1-.9.9 2.1 2zM8.1 19.4v-6.2c0-.3-.3-.6-.6-.6H3.1c0 .7.6 1.2 1.2 1.2h2.5v5H3.1c-1 .1-1.8-.7-1.9-1.7v-14c0-1 .8-1.8 1.7-1.8H6.8v5H4.4c-.7 0-1.2.6-1.2 1.2h4.4c.3 0 .6-.3.6-.6V.6C8.1.3 7.8 0 7.5 0H3.1C1.5-.1.1 1.2 0 2.9V16.8c-.1 1.7 1.2 3.1 2.9 3.1H7.5c.3.1.6-.2.6-.5z" />
  </symbol>
  <symbol id="icon-vk"  viewBox="0 0 22 12">
    <path d="m17.6 12c-0.3 0-0.9-0.1-1.5-0.5-0.5-0.3-0.9-0.7-1.3-1.2-0.3-0.3-0.9-0.9-1.1-0.9-0.2 0.1-0.4 0.7-0.3 1.2 0 0.1 0 0.6-0.3 0.9s-0.8 0.4-0.9 0.4h-1.4c-0.7 0-3.2-0.2-5.4-2.3-2.9-2.5-5.2-7.4-5.3-7.6-0.1-0.4-0.2-0.8 0.1-1.1s0.8-0.4 1-0.4h3.1c0.1 0 0.4 0.1 0.7 0.3s0.4 0.5 0.5 0.6c0.7 1.5 1.5 2.8 2.6 4 0.1-0.4 0.2-1.4 0.1-2.3 0-0.4-0.1-0.8-0.2-1-0.1-0.1-0.3-0.2-0.5-0.2l-0.6-0.5c0-0.5 0.5-0.9 0.9-1.1 0.5-0.2 1.3-0.3 2.3-0.3h0.5c0.9 0 1.2 0.1 1.6 0.1 1.2 0.3 1.2 1.3 1.1 2.5v1.6c0 0.3 0 0.8 0.1 1 0.2-0.1 0.6-0.5 1.5-1.9 0.6-0.9 1-1.9 1.1-2.1 0.1-0.3 0.4-0.7 1.2-0.7h3.4c0.7 0 1.2 0.2 1.3 0.7 0.2 0.5 0.1 1.3-1.7 3.5-0.3 0.3-0.5 0.6-0.7 0.9-0.5 0.4-0.9 1-0.9 1.1s0.5 0.5 0.9 0.9c1.1 0.9 1.9 1.7 2.2 2.3 0.4 0.6 0.3 1 0.2 1.3-0.3 0.7-1.2 0.7-1.4 0.8h-2.8-0.1zm-3.9-3.7c0.7 0 1.2 0.6 1.8 1.2 0.4 0.4 0.7 0.8 1.1 1 0.5 0.3 1 0.3 1 0.3h2.9c0.1 0 0.3-0.1 0.4-0.1 0 0 0-0.1-0.1-0.1-0.3-0.5-1-1.3-2-2.1-0.9-0.7-1.3-1.1-1.4-1.7 0-0.6 0.4-1.1 1.2-2.1 0.2-0.2 0.4-0.5 0.7-0.8 1.1-1.4 1.4-2 1.5-2.3h-3.9c0 0.4-0.5 1.5-1.1 2.4-1.4 2.1-2 2.4-2.5 2.4-0.1 0-0.3 0-0.4-0.1-0.7-0.4-0.7-1.4-0.7-2.1v-1.6c0.1-1.3 0-1.3-0.3-1.4s-0.5-0.1-1.4-0.1h-0.5c-0.5 0-1 0-1.4 0.1l0.2 0.2c0.4 0.5 0.4 1.5 0.4 1.7 0.1 1.3 0 2.9-0.7 3.3-0.1 0-0.2 0.1-0.4 0.1-0.6 0-1.3-0.7-2.5-2.5-0.6-1.1-1.1-2.2-1.1-2.2s0-0.1-0.1-0.1-0.2-0.1-0.2-0.1h-3c0.4 0.9 2.5 5 4.8 7.2 2 1.9 4.3 2 4.7 2h1.4s0.2 0 0.2-0.1v-0.1c0-0.2 0-2 1.2-2.3h0.2z" />
  </symbol>
  <symbol id="icon-inst" enable-background="new 0 0 16.1 16" viewBox="0 0 16.1 16"><path class="st0" d="M11.8 1C13.6 1 15 2.4 15 4.2v7.7c0 1.7-1.4 3.1-3.1 3.1H4.2C2.4 15 1 13.6 1 11.8V4.2C1 2.4 2.4 1 4.2 1h7.6m0-1H4.2C1.9 0 0 1.9 0 4.2v7.7C0 14.1 1.9 16 4.2 16h7.7c2.3 0 4.2-1.9 4.2-4.2V4.2C16 1.9 14.1 0 11.8 0z"/><path class="st0" d="M8 4.9c1.7 0 3.1 1.4 3.1 3.1S9.7 11.1 8 11.1 4.9 9.7 4.9 8 6.3 4.9 8 4.9m0-1C5.7 3.9 3.9 5.7 3.9 8s1.8 4.1 4.1 4.1 4.1-1.8 4.1-4.1S10.3 3.9 8 3.9z"/><circle class="st0" cx="12.3" cy="3.7" r=".9"/></symbol>
  <symbol id="icon-fb" enable-background="new 0 0 10 19" viewBox="0 0 10 19">
    <path d="M7.1,19H2v-8.8H0V5.8h1.9C1.8,3.8,2.1,2.4,3,1.4C3.8,0.5,5,0.1,6.5,0H10v4.2H7.2C7.1,4.4,7,5,7,5.8h3v4.4H7.1V19z M3.1,18 h2.8V9.1h2.9V6.8H5.9V6.3c0-1.4,0-2.6,0.7-3.1l0.1-0.1h2.1V1H6.5c-1.2,0.1-2,0.4-2.6,1c-0.8,0.8-1,2.3-0.8,4.2l0.1,0.6H1.1v2.3h2V18 z" />
  </symbol>
  <symbol id="copyright-icon" viewBox="0 0 26.943 34.09">
    <path d="M13.62.017L13.472 0 0 1.412v24.661l13.473 8.017 13.43-7.99.042-.025V1.412L13.62.017zm11.399 12.11L13.495 5.334l-.001-.104-.087.05-.088-.056v.109L1.925 12.118V3.147l11.548-1.212L25.02 3.147v8.98zm-11.614-5.34L24.923 13.5l-4.479 2.64-7.093-4.221-.014 1.415 5.904 3.513-.86.507-5.03-2.992-.014 1.415 3.827 2.275-.782.523-3.031-1.787-.014 1.413 1.853 1.091-1.8 1.081-11.356-6.751 11.371-6.835zm-11.48 8.34l11.411 6.791.016 1.044-7.942-4.728-.015 1.416 7.979 4.795.018 1.076-7.973-4.74-.013 1.414 8.021 4.822.046.025 8.143-4.872-.011-5.177 3.415-2.036v10.021L13.472 31.85 1.925 24.979v-9.852z"></path>
  </symbol>
</svg>
